<?xml version="1.0" encoding="UTF-8" standalone="no"?>
<!DOCTYPE svg PUBLIC "-//W3C//DTD SVG 1.1//EN"
 "http://www.w3.org/Graphics/SVG/1.1/DTD/svg11.dtd">
<!-- Generated by graphviz version 2.43.0 (0)
 -->
<!-- Title: %3 Pages: 1 -->
<svg width="1054pt" height="476pt"
 viewBox="0.00 0.00 1054.18 476.00" xmlns="http://www.w3.org/2000/svg" xmlns:xlink="http://www.w3.org/1999/xlink">
<g id="graph0" class="graph" transform="scale(1 1) rotate(0) translate(4 472)">
<title>%3</title>
<polygon fill="white" stroke="transparent" points="-4,4 -4,-472 1050.18,-472 1050.18,4 -4,4"/>
<!-- inner1Intermediate -->
<g id="node1" class="node">
<title>inner1Intermediate</title>
<polygon fill="aliceblue" stroke="black" points="203.09,-252 43.09,-252 43.09,-216 203.09,-216 203.09,-252"/>
<text text-anchor="middle" x="123.09" y="-230.3" font-family="Times,serif" font-size="14.00">Task in first process</text>
</g>
<!-- inner1Finish -->
<g id="node2" class="node">
<title>inner1Finish</title>
<ellipse fill="lightgreen" stroke="black" cx="133.09" cy="-90" rx="100.18" ry="18"/>
<text text-anchor="middle" x="133.09" y="-86.3" font-family="Times,serif" font-size="14.00">Finish first process</text>
</g>
<!-- inner1Intermediate&#45;&gt;inner1Finish -->
<g id="edge1" class="edge">
<title>inner1Intermediate&#45;&gt;inner1Finish</title>
<path fill="none" stroke="black" d="M124.3,-215.87C126,-191.67 129.13,-147.21 131.16,-118.39"/>
<polygon fill="black" stroke="black" points="134.67,-118.41 131.88,-108.19 127.69,-117.92 134.67,-118.41"/>
</g>
<!-- inner2Finish -->
<g id="node3" class="node">
<title>inner2Finish</title>
<ellipse fill="lightgreen" stroke="black" cx="933.09" cy="-18" rx="113.18" ry="18"/>
<text text-anchor="middle" x="933.09" y="-14.3" font-family="Times,serif" font-size="14.00">Finish second process</text>
</g>
<!-- error2 -->
<g id="node4" class="node">
<title>error2</title>
<ellipse fill="#ff6a6a" stroke="black" cx="707.09" cy="-18" rx="94.78" ry="18"/>
<text text-anchor="middle" x="707.09" y="-14.3" font-family="Times,serif" font-size="14.00">second error node</text>
</g>
<!-- intermediate3 -->
<g id="node5" class="node">
<title>intermediate3</title>
<polygon fill="aliceblue" stroke="black" points="486.59,-252 245.59,-252 245.59,-216 486.59,-216 486.59,-252"/>
<text text-anchor="middle" x="366.09" y="-230.3" font-family="Times,serif" font-size="14.00">Top&#45;level task with mixed input</text>
</g>
<!-- finish -->
<g id="node6" class="node">
<title>finish</title>
<ellipse fill="lightgreen" stroke="black" cx="217.09" cy="-18" rx="150.57" ry="18"/>
<text text-anchor="middle" x="217.09" y="-14.3" font-family="Times,serif" font-size="14.00">Final top level node &#45; success!</text>
</g>
<!-- intermediate3&#45;&gt;finish -->
<g id="edge2" class="edge">
<title>intermediate3&#45;&gt;finish</title>
<path fill="none" stroke="black" d="M276.51,-215.86C257.89,-208.03 240.48,-196.62 229.09,-180 220.04,-166.8 226.33,-159.76 229.09,-144 232.02,-127.24 239.16,-124.76 242.09,-108 244.85,-92.24 245.59,-87.61 242.09,-72 240.02,-62.77 236.16,-53.25 232.07,-44.87"/>
<polygon fill="black" stroke="black" points="235.17,-43.23 227.45,-35.97 228.95,-46.46 235.17,-43.23"/>
</g>
<!-- error3 -->
<g id="node7" class="node">
<title>error3</title>
<ellipse fill="#ff6a6a" stroke="black" cx="324.09" cy="-162" rx="85.59" ry="18"/>
<text text-anchor="middle" x="324.09" y="-158.3" font-family="Times,serif" font-size="14.00">third error node</text>
</g>
<!-- intermediate3&#45;&gt;error3 -->
<g id="edge3" class="edge">
<title>intermediate3&#45;&gt;error3</title>
<path fill="none" stroke="#ff6a6a" d="M355.71,-215.7C350.83,-207.56 344.9,-197.69 339.51,-188.7"/>
<polygon fill="#ff6a6a" stroke="#ff6a6a" points="342.5,-186.88 334.35,-180.1 336.5,-190.48 342.5,-186.88"/>
</g>
<!-- inner3Input -->
<g id="node8" class="node">
<title>inner3Input</title>
<ellipse fill="lightskyblue" stroke="black" cx="543.09" cy="-162" rx="115.88" ry="18"/>
<text text-anchor="middle" x="543.09" y="-158.3" font-family="Times,serif" font-size="14.00">Third inner input node</text>
</g>
<!-- intermediate3&#45;&gt;inner3Input -->
<g id="edge4" class="edge">
<title>intermediate3&#45;&gt;inner3Input</title>
<path fill="none" stroke="black" stroke-dasharray="1,5" d="M409.39,-215.88C434.73,-205.85 466.83,-193.16 493.22,-182.72"/>
<polygon fill="black" stroke="black" points="494.65,-185.92 502.66,-178.99 492.08,-179.41 494.65,-185.92"/>
</g>
<!-- inner3Intermediate -->
<g id="node9" class="node">
<title>inner3Intermediate</title>
<polygon fill="aliceblue" stroke="black" points="499.09,-108 333.09,-108 333.09,-72 499.09,-72 499.09,-108"/>
<text text-anchor="middle" x="416.09" y="-86.3" font-family="Times,serif" font-size="14.00">Task in third process</text>
</g>
<!-- inner3Input&#45;&gt;inner3Intermediate -->
<g id="edge5" class="edge">
<title>inner3Input&#45;&gt;inner3Intermediate</title>
<path fill="none" stroke="black" d="M513.31,-144.59C496.18,-135.14 474.42,-123.15 455.84,-112.91"/>
<polygon fill="black" stroke="black" points="457.45,-109.8 447.01,-108.04 454.07,-115.93 457.45,-109.8"/>
</g>
<!-- inner3Finish -->
<g id="node18" class="node">
<title>inner3Finish</title>
<ellipse fill="lightgreen" stroke="black" cx="490.09" cy="-18" rx="103.98" ry="18"/>
<text text-anchor="middle" x="490.09" y="-14.3" font-family="Times,serif" font-size="14.00">Finish third process</text>
</g>
<!-- inner3Intermediate&#45;&gt;inner3Finish -->
<g id="edge16" class="edge">
<title>inner3Intermediate&#45;&gt;inner3Finish</title>
<path fill="none" stroke="black" d="M434.38,-71.7C443.59,-62.99 454.9,-52.29 464.91,-42.82"/>
<polygon fill="black" stroke="black" points="467.4,-45.28 472.26,-35.86 462.59,-40.19 467.4,-45.28"/>
</g>
<!-- input -->
<g id="node10" class="node">
<title>input</title>
<ellipse fill="lightskyblue" stroke="black" cx="183.09" cy="-450" rx="81.49" ry="18"/>
<text text-anchor="middle" x="183.09" y="-446.3" font-family="Times,serif" font-size="14.00">Our input node</text>
</g>
<!-- intermediate -->
<g id="node11" class="node">
<title>intermediate</title>
<polygon fill="aliceblue" stroke="black" points="240.59,-396 125.59,-396 125.59,-360 240.59,-360 240.59,-396"/>
<text text-anchor="middle" x="183.09" y="-374.3" font-family="Times,serif" font-size="14.00">Top&#45;level task</text>
</g>
<!-- input&#45;&gt;intermediate -->
<g id="edge6" class="edge">
<title>input&#45;&gt;intermediate</title>
<path fill="none" stroke="black" d="M183.09,-431.7C183.09,-423.98 183.09,-414.71 183.09,-406.11"/>
<polygon fill="black" stroke="black" points="186.59,-406.1 183.09,-396.1 179.59,-406.1 186.59,-406.1"/>
</g>
<!-- intermediate&#45;&gt;intermediate3 -->
<g id="edge10" class="edge">
<title>intermediate&#45;&gt;intermediate3</title>
<path fill="none" stroke="black" d="M205.16,-359.87C237.73,-334.6 298.75,-287.25 335.57,-258.68"/>
<polygon fill="black" stroke="black" points="338.18,-261.08 343.94,-252.19 333.89,-255.55 338.18,-261.08"/>
</g>
<!-- inner1Input -->
<g id="node12" class="node">
<title>inner1Input</title>
<ellipse fill="lightskyblue" stroke="black" cx="113.09" cy="-306" rx="113.18" ry="18"/>
<text text-anchor="middle" x="113.09" y="-302.3" font-family="Times,serif" font-size="14.00">First inner input node</text>
</g>
<!-- intermediate&#45;&gt;inner1Input -->
<g id="edge7" class="edge">
<title>intermediate&#45;&gt;inner1Input</title>
<path fill="none" stroke="black" stroke-dasharray="1,5" d="M165.79,-359.7C157.22,-351.14 146.75,-340.66 137.39,-331.3"/>
<polygon fill="black" stroke="black" points="139.74,-328.7 130.19,-324.1 134.79,-333.65 139.74,-328.7"/>
</g>
<!-- error -->
<g id="node13" class="node">
<title>error</title>
<ellipse fill="#ff6a6a" stroke="black" cx="889.09" cy="-90" rx="81.79" ry="18"/>
<text text-anchor="middle" x="889.09" y="-86.3" font-family="Times,serif" font-size="14.00">first error node</text>
</g>
<!-- intermediate&#45;&gt;error -->
<g id="edge8" class="edge">
<title>intermediate&#45;&gt;error</title>
<path fill="none" stroke="#ff6a6a" d="M240.87,-374.27C328.39,-369.26 499.38,-355.99 641.09,-324 737.74,-302.18 767.99,-304.39 852.09,-252 890.5,-228.07 906.77,-221.81 924.09,-180 930.21,-165.22 928.69,-159.32 924.09,-144 921.12,-134.12 915.65,-124.39 909.91,-116.01"/>
<polygon fill="#ff6a6a" stroke="#ff6a6a" points="912.64,-113.83 903.91,-107.83 906.99,-117.96 912.64,-113.83"/>
</g>
<!-- intermediate2 -->
<g id="node14" class="node">
<title>intermediate2</title>
<polygon fill="aliceblue" stroke="black" points="632.59,-324 415.59,-324 415.59,-288 632.59,-288 632.59,-324"/>
<text text-anchor="middle" x="524.09" y="-302.3" font-family="Times,serif" font-size="14.00">Top&#45;level task with int input</text>
</g>
<!-- intermediate&#45;&gt;intermediate2 -->
<g id="edge9" class="edge">
<title>intermediate&#45;&gt;intermediate2</title>
<path fill="none" stroke="black" d="M240.94,-365.13C292.96,-354.45 370.3,-338.57 431.01,-326.11"/>
<polygon fill="black" stroke="black" points="431.9,-329.5 440.99,-324.06 430.49,-322.64 431.9,-329.5"/>
</g>
<!-- inner1Input&#45;&gt;inner1Intermediate -->
<g id="edge15" class="edge">
<title>inner1Input&#45;&gt;inner1Intermediate</title>
<path fill="none" stroke="black" d="M115.56,-287.7C116.66,-279.98 117.99,-270.71 119.22,-262.11"/>
<polygon fill="black" stroke="black" points="122.7,-262.5 120.65,-252.1 115.77,-261.51 122.7,-262.5"/>
</g>
<!-- intermediate2&#45;&gt;error2 -->
<g id="edge11" class="edge">
<title>intermediate2&#45;&gt;error2</title>
<path fill="none" stroke="#ff6a6a" d="M556.83,-287.87C591.83,-267.49 645.35,-229.85 668.09,-180 674.73,-165.44 677.5,-156.94 668.09,-144 637.59,-102.05 587.59,-149.95 557.09,-108 547.68,-95.06 547.85,-85.06 557.09,-72 571.6,-51.49 594.73,-38.86 618.54,-31.11"/>
<polygon fill="#ff6a6a" stroke="#ff6a6a" points="619.81,-34.38 628.39,-28.17 617.81,-27.67 619.81,-34.38"/>
</g>
<!-- intermediate2&#45;&gt;intermediate3 -->
<g id="edge12" class="edge">
<title>intermediate2&#45;&gt;intermediate3</title>
<path fill="none" stroke="black" d="M485.44,-287.88C463.84,-278.31 436.74,-266.3 413.82,-256.15"/>
<polygon fill="black" stroke="black" points="415.18,-252.92 404.62,-252.07 412.34,-259.32 415.18,-252.92"/>
</g>
<!-- inner2Input -->
<g id="node15" class="node">
<title>inner2Input</title>
<ellipse fill="lightskyblue" stroke="black" cx="762.09" cy="-234" rx="81.49" ry="18"/>
<text text-anchor="middle" x="762.09" y="-230.3" font-family="Times,serif" font-size="14.00">Our input node</text>
</g>
<!-- intermediate2&#45;&gt;inner2Input -->
<g id="edge13" class="edge">
<title>intermediate2&#45;&gt;inner2Input</title>
<path fill="none" stroke="black" stroke-dasharray="1,5" d="M582.01,-287.97C619.52,-276.93 668.14,-262.63 705.41,-251.67"/>
<polygon fill="black" stroke="black" points="706.51,-255 715.11,-248.82 704.53,-248.28 706.51,-255"/>
</g>
<!-- inner2Intermediate -->
<g id="node16" class="node">
<title>inner2Intermediate</title>
<polygon fill="aliceblue" stroke="black" points="915.09,-180 715.09,-180 715.09,-144 915.09,-144 915.09,-180"/>
<text text-anchor="middle" x="815.09" y="-158.3" font-family="Times,serif" font-size="14.00">Second process, first task</text>
</g>
<!-- inner2Input&#45;&gt;inner2Intermediate -->
<g id="edge18" class="edge">
<title>inner2Input&#45;&gt;inner2Intermediate</title>
<path fill="none" stroke="black" d="M774.92,-216.05C781.21,-207.75 788.91,-197.58 795.88,-188.38"/>
<polygon fill="black" stroke="black" points="798.76,-190.36 802.01,-180.28 793.18,-186.14 798.76,-190.36"/>
</g>
<!-- inner2Intermediate2 -->
<g id="node17" class="node">
<title>inner2Intermediate2</title>
<polygon fill="aliceblue" stroke="black" points="787.59,-108 566.59,-108 566.59,-72 787.59,-72 787.59,-108"/>
<text text-anchor="middle" x="677.09" y="-86.3" font-family="Times,serif" font-size="14.00">Second process, second task</text>
</g>
<!-- inner2Intermediate&#45;&gt;inner2Intermediate2 -->
<g id="edge14" class="edge">
<title>inner2Intermediate&#45;&gt;inner2Intermediate2</title>
<path fill="none" stroke="black" d="M781.33,-143.88C762.87,-134.51 739.81,-122.81 720.07,-112.8"/>
<polygon fill="black" stroke="black" points="721.48,-109.59 710.98,-108.19 718.31,-115.83 721.48,-109.59"/>
</g>
<!-- inner2Intermediate2&#45;&gt;inner2Finish -->
<g id="edge17" class="edge">
<title>inner2Intermediate2&#45;&gt;inner2Finish</title>
<path fill="none" stroke="black" d="M739.39,-71.97C778.68,-61.22 829.31,-47.38 868.95,-36.54"/>
<polygon fill="black" stroke="black" points="870.06,-39.86 878.78,-33.85 868.21,-33.11 870.06,-39.86"/>
</g>
</g>
</svg>
