<?xml version="1.0" encoding="UTF-8" standalone="no"?>
<!DOCTYPE svg PUBLIC "-//W3C//DTD SVG 1.1//EN"
 "http://www.w3.org/Graphics/SVG/1.1/DTD/svg11.dtd">
<!-- Generated by graphviz version 2.43.0 (0)
 -->
<!-- Title: %3 Pages: 1 -->
<svg width="1260pt" height="476pt"
 viewBox="0.00 0.00 1259.88 476.00" xmlns="http://www.w3.org/2000/svg" xmlns:xlink="http://www.w3.org/1999/xlink">
<g id="graph0" class="graph" transform="scale(1 1) rotate(0) translate(4 472)">
<title>%3</title>
<polygon fill="white" stroke="transparent" points="-4,4 -4,-472 1255.88,-472 1255.88,4 -4,4"/>
<!-- intermediate -->
<g id="node1" class="node">
<title>intermediate</title>
<polygon fill="aliceblue" stroke="black" points="290.29,-396 175.29,-396 175.29,-360 290.29,-360 290.29,-396"/>
<text text-anchor="middle" x="232.79" y="-374.3" font-family="Times,serif" font-size="14.00">Top&#45;level task</text>
</g>
<!-- intermediate2 -->
<g id="node2" class="node">
<title>intermediate2</title>
<polygon fill="aliceblue" stroke="black" points="558.29,-324 341.29,-324 341.29,-288 558.29,-288 558.29,-324"/>
<text text-anchor="middle" x="449.79" y="-302.3" font-family="Times,serif" font-size="14.00">Top&#45;level task with int input</text>
</g>
<!-- intermediate&#45;&gt;intermediate2 -->
<g id="edge1" class="edge">
<title>intermediate&#45;&gt;intermediate2</title>
<path fill="none" stroke="black" d="M285.59,-359.97C316.18,-350.1 354.86,-337.62 387,-327.25"/>
<polygon fill="black" stroke="black" points="388.3,-330.51 396.74,-324.11 386.15,-323.85 388.3,-330.51"/>
</g>
<!-- inner1Input -->
<g id="node3" class="node">
<title>inner1Input</title>
<ellipse fill="lightskyblue" stroke="black" cx="1094.79" cy="-306" rx="113.18" ry="18"/>
<text text-anchor="middle" x="1094.79" y="-302.3" font-family="Times,serif" font-size="14.00">First inner input node</text>
</g>
<!-- intermediate&#45;&gt;inner1Input -->
<g id="edge2" class="edge">
<title>intermediate&#45;&gt;inner1Input</title>
<path fill="none" stroke="black" stroke-dasharray="1,5" d="M290.35,-372.97C408.56,-364.59 687.17,-344.41 920.79,-324 943.94,-321.98 968.8,-319.64 992.29,-317.37"/>
<polygon fill="black" stroke="black" points="992.65,-320.85 1002.26,-316.4 991.97,-313.88 992.65,-320.85"/>
</g>
<!-- error -->
<g id="node4" class="node">
<title>error</title>
<ellipse fill="#ff6a6a" stroke="black" cx="1062.79" cy="-90" rx="81.79" ry="18"/>
<text text-anchor="middle" x="1062.79" y="-86.3" font-family="Times,serif" font-size="14.00">first error node</text>
</g>
<!-- intermediate&#45;&gt;error -->
<g id="edge3" class="edge">
<title>intermediate&#45;&gt;error</title>
<path fill="none" stroke="#ff6a6a" d="M290.65,-374.05C401.76,-366.48 650.54,-340.24 837.79,-252 916.65,-214.84 996.78,-149.44 1036.75,-114.53"/>
<polygon fill="#ff6a6a" stroke="#ff6a6a" points="1039.23,-117 1044.42,-107.77 1034.6,-111.75 1039.23,-117"/>
</g>
<!-- intermediate3 -->
<g id="node5" class="node">
<title>intermediate3</title>
<polygon fill="aliceblue" stroke="black" points="333.29,-252 92.29,-252 92.29,-216 333.29,-216 333.29,-252"/>
<text text-anchor="middle" x="212.79" y="-230.3" font-family="Times,serif" font-size="14.00">Top&#45;level task with mixed input</text>
</g>
<!-- intermediate&#45;&gt;intermediate3 -->
<g id="edge4" class="edge">
<title>intermediate&#45;&gt;intermediate3</title>
<path fill="none" stroke="black" d="M230.37,-359.87C226.97,-335.67 220.7,-291.21 216.64,-262.39"/>
<polygon fill="black" stroke="black" points="220.07,-261.6 215.21,-252.19 213.14,-262.58 220.07,-261.6"/>
</g>
<!-- intermediate2&#45;&gt;intermediate3 -->
<g id="edge19" class="edge">
<title>intermediate2&#45;&gt;intermediate3</title>
<path fill="none" stroke="black" d="M392.11,-287.97C358.42,-278.01 315.73,-265.41 280.46,-254.99"/>
<polygon fill="black" stroke="black" points="281.3,-251.59 270.72,-252.11 279.32,-258.3 281.3,-251.59"/>
</g>
<!-- error2 -->
<g id="node7" class="node">
<title>error2</title>
<ellipse fill="#ff6a6a" stroke="black" cx="947.79" cy="-18" rx="94.78" ry="18"/>
<text text-anchor="middle" x="947.79" y="-14.3" font-family="Times,serif" font-size="14.00">second error node</text>
</g>
<!-- intermediate2&#45;&gt;error2 -->
<g id="edge20" class="edge">
<title>intermediate2&#45;&gt;error2</title>
<path fill="none" stroke="#ff6a6a" d="M558.56,-297.71C624.15,-290.84 708.51,-277.57 779.79,-252 839.41,-230.61 864.11,-230.16 902.79,-180 933.41,-140.29 943.2,-80.83 946.32,-46.38"/>
<polygon fill="#ff6a6a" stroke="#ff6a6a" points="949.83,-46.37 947.12,-36.13 942.85,-45.83 949.83,-46.37"/>
</g>
<!-- inner2Input -->
<g id="node18" class="node">
<title>inner2Input</title>
<ellipse fill="lightskyblue" stroke="black" cx="598.79" cy="-234" rx="81.49" ry="18"/>
<text text-anchor="middle" x="598.79" y="-230.3" font-family="Times,serif" font-size="14.00">Our input node</text>
</g>
<!-- intermediate2&#45;&gt;inner2Input -->
<g id="edge21" class="edge">
<title>intermediate2&#45;&gt;inner2Input</title>
<path fill="none" stroke="black" stroke-dasharray="1,5" d="M486.24,-287.88C507.49,-277.89 534.4,-265.25 556.58,-254.83"/>
<polygon fill="black" stroke="black" points="558.2,-257.93 565.76,-250.51 555.22,-251.6 558.2,-257.93"/>
</g>
<!-- inner1Intermediate -->
<g id="node12" class="node">
<title>inner1Intermediate</title>
<polygon fill="aliceblue" stroke="black" points="1221.79,-252 1061.79,-252 1061.79,-216 1221.79,-216 1221.79,-252"/>
<text text-anchor="middle" x="1141.79" y="-230.3" font-family="Times,serif" font-size="14.00">Task in first process</text>
</g>
<!-- inner1Input&#45;&gt;inner1Intermediate -->
<g id="edge9" class="edge">
<title>inner1Input&#45;&gt;inner1Intermediate</title>
<path fill="none" stroke="black" d="M1106.16,-288.05C1111.68,-279.84 1118.43,-269.79 1124.56,-260.66"/>
<polygon fill="black" stroke="black" points="1127.52,-262.53 1130.19,-252.28 1121.71,-258.63 1127.52,-262.53"/>
</g>
<!-- inner3Input -->
<g id="node8" class="node">
<title>inner3Input</title>
<ellipse fill="lightskyblue" stroke="black" cx="521.79" cy="-162" rx="115.88" ry="18"/>
<text text-anchor="middle" x="521.79" y="-158.3" font-family="Times,serif" font-size="14.00">Third inner input node</text>
</g>
<!-- intermediate3&#45;&gt;inner3Input -->
<g id="edge12" class="edge">
<title>intermediate3&#45;&gt;inner3Input</title>
<path fill="none" stroke="black" stroke-dasharray="1,5" d="M287.98,-215.97C337.12,-204.83 400.94,-190.38 449.48,-179.38"/>
<polygon fill="black" stroke="black" points="450.31,-182.78 459.29,-177.16 448.76,-175.95 450.31,-182.78"/>
</g>
<!-- finish -->
<g id="node13" class="node">
<title>finish</title>
<ellipse fill="lightgreen" stroke="black" cx="150.79" cy="-90" rx="150.57" ry="18"/>
<text text-anchor="middle" x="150.79" y="-86.3" font-family="Times,serif" font-size="14.00">Final top level node &#45; success!</text>
</g>
<!-- intermediate3&#45;&gt;finish -->
<g id="edge14" class="edge">
<title>intermediate3&#45;&gt;finish</title>
<path fill="none" stroke="black" d="M205.31,-215.87C194.65,-191.46 174.99,-146.43 162.42,-117.64"/>
<polygon fill="black" stroke="black" points="165.5,-115.95 158.29,-108.19 159.09,-118.75 165.5,-115.95"/>
</g>
<!-- error3 -->
<g id="node16" class="node">
<title>error3</title>
<ellipse fill="#ff6a6a" stroke="black" cx="249.79" cy="-18" rx="85.59" ry="18"/>
<text text-anchor="middle" x="249.79" y="-14.3" font-family="Times,serif" font-size="14.00">third error node</text>
</g>
<!-- intermediate3&#45;&gt;error3 -->
<g id="edge13" class="edge">
<title>intermediate3&#45;&gt;error3</title>
<path fill="none" stroke="#ff6a6a" d="M232.52,-215.94C256.39,-193.85 295.31,-152.83 310.79,-108 316.01,-92.88 317.42,-86.56 310.79,-72 305.32,-60.01 295.66,-49.69 285.61,-41.42"/>
<polygon fill="#ff6a6a" stroke="#ff6a6a" points="287.61,-38.54 277.55,-35.24 283.36,-44.1 287.61,-38.54"/>
</g>
<!-- inner2Finish -->
<g id="node6" class="node">
<title>inner2Finish</title>
<ellipse fill="lightgreen" stroke="black" cx="711.79" cy="-18" rx="113.18" ry="18"/>
<text text-anchor="middle" x="711.79" y="-14.3" font-family="Times,serif" font-size="14.00">Finish second process</text>
</g>
<!-- inner2Finish&#45;&gt;intermediate2 -->
<g id="edge5" class="edge">
<title>inner2Finish&#45;&gt;intermediate2</title>
<path fill="none" stroke="black" stroke-dasharray="1,5" d="M787.29,-31.47C831.59,-40.49 881.42,-54.22 894.79,-72 924.11,-111.03 907.57,-143.83 874.79,-180 832.61,-226.54 671.27,-264.57 559.98,-286.01"/>
<polygon fill="black" stroke="black" points="559.21,-282.6 550.04,-287.91 560.52,-289.47 559.21,-282.6"/>
</g>
<!-- inner3Intermediate -->
<g id="node9" class="node">
<title>inner3Intermediate</title>
<polygon fill="aliceblue" stroke="black" points="646.79,-108 480.79,-108 480.79,-72 646.79,-72 646.79,-108"/>
<text text-anchor="middle" x="563.79" y="-86.3" font-family="Times,serif" font-size="14.00">Task in third process</text>
</g>
<!-- inner3Input&#45;&gt;inner3Intermediate -->
<g id="edge6" class="edge">
<title>inner3Input&#45;&gt;inner3Intermediate</title>
<path fill="none" stroke="black" d="M531.95,-144.05C536.83,-135.92 542.79,-126 548.22,-116.94"/>
<polygon fill="black" stroke="black" points="551.28,-118.65 553.42,-108.28 545.28,-115.05 551.28,-118.65"/>
</g>
<!-- inner3Finish -->
<g id="node14" class="node">
<title>inner3Finish</title>
<ellipse fill="lightgreen" stroke="black" cx="457.79" cy="-18" rx="103.98" ry="18"/>
<text text-anchor="middle" x="457.79" y="-14.3" font-family="Times,serif" font-size="14.00">Finish third process</text>
</g>
<!-- inner3Intermediate&#45;&gt;inner3Finish -->
<g id="edge16" class="edge">
<title>inner3Intermediate&#45;&gt;inner3Finish</title>
<path fill="none" stroke="black" d="M537.86,-71.88C523.92,-62.67 506.57,-51.22 491.59,-41.32"/>
<polygon fill="black" stroke="black" points="493.36,-38.3 483.08,-35.71 489.5,-44.14 493.36,-38.3"/>
</g>
<!-- inner1Finish -->
<g id="node10" class="node">
<title>inner1Finish</title>
<ellipse fill="lightgreen" stroke="black" cx="1151.79" cy="-162" rx="100.18" ry="18"/>
<text text-anchor="middle" x="1151.79" y="-158.3" font-family="Times,serif" font-size="14.00">Finish first process</text>
</g>
<!-- inner1Finish&#45;&gt;intermediate -->
<g id="edge7" class="edge">
<title>inner1Finish&#45;&gt;intermediate</title>
<path fill="none" stroke="black" stroke-dasharray="1,5" d="M1121.41,-179.27C1076.61,-203.23 996.6,-245.83 982.79,-252 898.81,-289.51 878.43,-303.46 788.79,-324 615.91,-363.61 406.23,-373.67 300.6,-376.19"/>
<polygon fill="black" stroke="black" points="300.32,-372.7 290.4,-376.42 300.47,-379.7 300.32,-372.7"/>
</g>
<!-- inner2Intermediate2 -->
<g id="node11" class="node">
<title>inner2Intermediate2</title>
<polygon fill="aliceblue" stroke="black" points="886.29,-108 665.29,-108 665.29,-72 886.29,-72 886.29,-108"/>
<text text-anchor="middle" x="775.79" y="-86.3" font-family="Times,serif" font-size="14.00">Second process, second task</text>
</g>
<!-- inner2Intermediate2&#45;&gt;inner2Finish -->
<g id="edge8" class="edge">
<title>inner2Intermediate2&#45;&gt;inner2Finish</title>
<path fill="none" stroke="black" d="M759.97,-71.7C752.22,-63.22 742.75,-52.86 734.26,-43.58"/>
<polygon fill="black" stroke="black" points="736.76,-41.12 727.42,-36.1 731.59,-45.85 736.76,-41.12"/>
</g>
<!-- inner1Intermediate&#45;&gt;inner1Finish -->
<g id="edge17" class="edge">
<title>inner1Intermediate&#45;&gt;inner1Finish</title>
<path fill="none" stroke="black" d="M1144.26,-215.7C1145.36,-207.98 1146.68,-198.71 1147.91,-190.11"/>
<polygon fill="black" stroke="black" points="1151.39,-190.5 1149.34,-180.1 1144.46,-189.51 1151.39,-190.5"/>
</g>
<!-- inner3Finish&#45;&gt;intermediate3 -->
<g id="edge10" class="edge">
<title>inner3Finish&#45;&gt;intermediate3</title>
<path fill="none" stroke="black" stroke-dasharray="1,5" d="M442.62,-36.15C414.96,-66.92 353.72,-132.69 294.79,-180 281.1,-190.99 265.08,-201.75 250.84,-210.68"/>
<polygon fill="black" stroke="black" points="248.92,-207.76 242.25,-215.99 252.6,-213.71 248.92,-207.76"/>
</g>
<!-- inner2Intermediate -->
<g id="node15" class="node">
<title>inner2Intermediate</title>
<polygon fill="aliceblue" stroke="black" points="865.79,-180 665.79,-180 665.79,-144 865.79,-144 865.79,-180"/>
<text text-anchor="middle" x="765.79" y="-158.3" font-family="Times,serif" font-size="14.00">Second process, first task</text>
</g>
<!-- inner2Intermediate&#45;&gt;inner2Intermediate2 -->
<g id="edge11" class="edge">
<title>inner2Intermediate&#45;&gt;inner2Intermediate2</title>
<path fill="none" stroke="black" d="M768.26,-143.7C769.36,-135.98 770.68,-126.71 771.91,-118.11"/>
<polygon fill="black" stroke="black" points="775.39,-118.5 773.34,-108.1 768.46,-117.51 775.39,-118.5"/>
</g>
<!-- input -->
<g id="node17" class="node">
<title>input</title>
<ellipse fill="lightskyblue" stroke="black" cx="232.79" cy="-450" rx="81.49" ry="18"/>
<text text-anchor="middle" x="232.79" y="-446.3" font-family="Times,serif" font-size="14.00">Our input node</text>
</g>
<!-- input&#45;&gt;intermediate -->
<g id="edge15" class="edge">
<title>input&#45;&gt;intermediate</title>
<path fill="none" stroke="black" d="M232.79,-431.7C232.79,-423.98 232.79,-414.71 232.79,-406.11"/>
<polygon fill="black" stroke="black" points="236.29,-406.1 232.79,-396.1 229.29,-406.1 236.29,-406.1"/>
</g>
<!-- inner2Input&#45;&gt;inner2Intermediate -->
<g id="edge18" class="edge">
<title>inner2Input&#45;&gt;inner2Intermediate</title>
<path fill="none" stroke="black" d="M635.02,-217.81C658.69,-207.89 689.91,-194.81 715.91,-183.91"/>
<polygon fill="black" stroke="black" points="717.36,-187.1 725.23,-180 714.65,-180.64 717.36,-187.1"/>
</g>
</g>
</svg>
