<?xml version="1.0" encoding="UTF-8" standalone="no"?>
<!DOCTYPE svg PUBLIC "-//W3C//DTD SVG 1.1//EN"
 "http://www.w3.org/Graphics/SVG/1.1/DTD/svg11.dtd">
<!-- Generated by graphviz version 2.43.0 (0)
 -->
<!-- Title: %3 Pages: 1 -->
<svg width="988pt" height="476pt"
 viewBox="0.00 0.00 987.88 476.00" xmlns="http://www.w3.org/2000/svg" xmlns:xlink="http://www.w3.org/1999/xlink">
<g id="graph0" class="graph" transform="scale(1 1) rotate(0) translate(4 472)">
<title>%3</title>
<polygon fill="white" stroke="transparent" points="-4,4 -4,-472 983.88,-472 983.88,4 -4,4"/>
<!-- inner2Finish -->
<g id="node1" class="node">
<title>inner2Finish</title>
<ellipse fill="lightgreen" stroke="black" cx="113.09" cy="-18" rx="113.18" ry="18"/>
<text text-anchor="middle" x="113.09" y="-14.3" font-family="Times,serif" font-size="14.00">Finish second process</text>
</g>
<!-- error3 -->
<g id="node2" class="node">
<title>error3</title>
<ellipse fill="#ff6a6a" stroke="black" cx="664.09" cy="-90" rx="85.59" ry="18"/>
<text text-anchor="middle" x="664.09" y="-86.3" font-family="Times,serif" font-size="14.00">third error node</text>
</g>
<!-- inner2Intermediate -->
<g id="node3" class="node">
<title>inner2Intermediate</title>
<polygon fill="aliceblue" stroke="black" points="248.09,-180 48.09,-180 48.09,-144 248.09,-144 248.09,-180"/>
<text text-anchor="middle" x="148.09" y="-158.3" font-family="Times,serif" font-size="14.00">Second process, first task</text>
</g>
<!-- inner2Intermediate2 -->
<g id="node4" class="node">
<title>inner2Intermediate2</title>
<polygon fill="aliceblue" stroke="black" points="266.59,-108 45.59,-108 45.59,-72 266.59,-72 266.59,-108"/>
<text text-anchor="middle" x="156.09" y="-86.3" font-family="Times,serif" font-size="14.00">Second process, second task</text>
</g>
<!-- inner2Intermediate&#45;&gt;inner2Intermediate2 -->
<g id="edge1" class="edge">
<title>inner2Intermediate&#45;&gt;inner2Intermediate2</title>
<path fill="none" stroke="black" d="M150.07,-143.7C150.95,-135.98 152.01,-126.71 152.99,-118.11"/>
<polygon fill="black" stroke="black" points="156.48,-118.44 154.14,-108.1 149.52,-117.64 156.48,-118.44"/>
</g>
<!-- inner2Intermediate2&#45;&gt;inner2Finish -->
<g id="edge17" class="edge">
<title>inner2Intermediate2&#45;&gt;inner2Finish</title>
<path fill="none" stroke="black" d="M145.46,-71.7C140.46,-63.56 134.4,-53.69 128.88,-44.7"/>
<polygon fill="black" stroke="black" points="131.81,-42.79 123.6,-36.1 125.85,-46.46 131.81,-42.79"/>
</g>
<!-- intermediate -->
<g id="node5" class="node">
<title>intermediate</title>
<polygon fill="aliceblue" stroke="black" points="353.59,-396 238.59,-396 238.59,-360 353.59,-360 353.59,-396"/>
<text text-anchor="middle" x="296.09" y="-374.3" font-family="Times,serif" font-size="14.00">Top&#45;level task</text>
</g>
<!-- intermediate3 -->
<g id="node6" class="node">
<title>intermediate3</title>
<polygon fill="aliceblue" stroke="black" points="655.59,-252 414.59,-252 414.59,-216 655.59,-216 655.59,-252"/>
<text text-anchor="middle" x="535.09" y="-230.3" font-family="Times,serif" font-size="14.00">Top&#45;level task with mixed input</text>
</g>
<!-- intermediate&#45;&gt;intermediate3 -->
<g id="edge2" class="edge">
<title>intermediate&#45;&gt;intermediate3</title>
<path fill="none" stroke="black" d="M324.92,-359.87C368.07,-334.23 449.5,-285.85 497.35,-257.43"/>
<polygon fill="black" stroke="black" points="499.35,-260.31 506.16,-252.19 495.77,-254.29 499.35,-260.31"/>
</g>
<!-- inner1Input -->
<g id="node7" class="node">
<title>inner1Input</title>
<ellipse fill="lightskyblue" stroke="black" cx="671.09" cy="-306" rx="113.18" ry="18"/>
<text text-anchor="middle" x="671.09" y="-302.3" font-family="Times,serif" font-size="14.00">First inner input node</text>
</g>
<!-- intermediate&#45;&gt;inner1Input -->
<g id="edge3" class="edge">
<title>intermediate&#45;&gt;inner1Input</title>
<path fill="none" stroke="black" stroke-dasharray="1,5" d="M353.86,-366.22C417.34,-354.37 519.73,-335.25 590.95,-321.96"/>
<polygon fill="black" stroke="black" points="591.59,-325.4 600.78,-320.12 590.31,-318.52 591.59,-325.4"/>
</g>
<!-- error -->
<g id="node8" class="node">
<title>error</title>
<ellipse fill="#ff6a6a" stroke="black" cx="854.09" cy="-90" rx="81.79" ry="18"/>
<text text-anchor="middle" x="854.09" y="-86.3" font-family="Times,serif" font-size="14.00">first error node</text>
</g>
<!-- intermediate&#45;&gt;error -->
<g id="edge4" class="edge">
<title>intermediate&#45;&gt;error</title>
<path fill="none" stroke="#ff6a6a" d="M353.61,-376.02C467.59,-373.25 717.67,-362.81 793.09,-324 861.93,-288.58 874.15,-255.54 891.09,-180 894.59,-164.39 895.89,-159.26 891.09,-144 887.91,-133.88 882.03,-124.01 875.89,-115.59"/>
<polygon fill="#ff6a6a" stroke="#ff6a6a" points="878.64,-113.43 869.74,-107.69 873.12,-117.73 878.64,-113.43"/>
</g>
<!-- intermediate2 -->
<g id="node9" class="node">
<title>intermediate2</title>
<polygon fill="aliceblue" stroke="black" points="336.59,-324 119.59,-324 119.59,-288 336.59,-288 336.59,-324"/>
<text text-anchor="middle" x="228.09" y="-302.3" font-family="Times,serif" font-size="14.00">Top&#45;level task with int input</text>
</g>
<!-- intermediate&#45;&gt;intermediate2 -->
<g id="edge5" class="edge">
<title>intermediate&#45;&gt;intermediate2</title>
<path fill="none" stroke="black" d="M279.28,-359.7C270.96,-351.14 260.78,-340.66 251.7,-331.3"/>
<polygon fill="black" stroke="black" points="254.18,-328.84 244.71,-324.1 249.16,-333.72 254.18,-328.84"/>
</g>
<!-- intermediate3&#45;&gt;error3 -->
<g id="edge8" class="edge">
<title>intermediate3&#45;&gt;error3</title>
<path fill="none" stroke="#ff6a6a" d="M571.82,-215.96C588.14,-207.02 606.66,-194.82 620.09,-180 636.47,-161.92 648.19,-136.62 655.4,-117.62"/>
<polygon fill="#ff6a6a" stroke="#ff6a6a" points="658.74,-118.65 658.84,-108.06 652.16,-116.28 658.74,-118.65"/>
</g>
<!-- inner3Input -->
<g id="node13" class="node">
<title>inner3Input</title>
<ellipse fill="lightskyblue" stroke="black" cx="443.09" cy="-162" rx="115.88" ry="18"/>
<text text-anchor="middle" x="443.09" y="-158.3" font-family="Times,serif" font-size="14.00">Third inner input node</text>
</g>
<!-- intermediate3&#45;&gt;inner3Input -->
<g id="edge9" class="edge">
<title>intermediate3&#45;&gt;inner3Input</title>
<path fill="none" stroke="black" stroke-dasharray="1,5" d="M512.35,-215.7C500.56,-206.73 486.01,-195.66 473.3,-185.98"/>
<polygon fill="black" stroke="black" points="475.33,-183.13 465.25,-179.86 471.09,-188.7 475.33,-183.13"/>
</g>
<!-- finish -->
<g id="node15" class="node">
<title>finish</title>
<ellipse fill="lightgreen" stroke="black" cx="829.09" cy="-18" rx="150.57" ry="18"/>
<text text-anchor="middle" x="829.09" y="-14.3" font-family="Times,serif" font-size="14.00">Final top level node &#45; success!</text>
</g>
<!-- intermediate3&#45;&gt;finish -->
<g id="edge10" class="edge">
<title>intermediate3&#45;&gt;finish</title>
<path fill="none" stroke="black" d="M549.37,-215.55C556.48,-205.74 564.34,-192.91 568.09,-180 581.5,-133.91 538.55,-109.04 569.09,-72 579.46,-59.42 657.84,-44.55 725.86,-33.77"/>
<polygon fill="black" stroke="black" points="726.47,-37.21 735.81,-32.21 725.39,-30.3 726.47,-37.21"/>
</g>
<!-- inner1Intermediate -->
<g id="node16" class="node">
<title>inner1Intermediate</title>
<polygon fill="aliceblue" stroke="black" points="848.09,-252 688.09,-252 688.09,-216 848.09,-216 848.09,-252"/>
<text text-anchor="middle" x="768.09" y="-230.3" font-family="Times,serif" font-size="14.00">Task in first process</text>
</g>
<!-- inner1Input&#45;&gt;inner1Intermediate -->
<g id="edge11" class="edge">
<title>inner1Input&#45;&gt;inner1Intermediate</title>
<path fill="none" stroke="black" d="M694.57,-288.05C707.11,-279.01 722.72,-267.74 736.32,-257.93"/>
<polygon fill="black" stroke="black" points="738.43,-260.72 744.49,-252.03 734.33,-255.05 738.43,-260.72"/>
</g>
<!-- intermediate2&#45;&gt;intermediate3 -->
<g id="edge14" class="edge">
<title>intermediate2&#45;&gt;intermediate3</title>
<path fill="none" stroke="black" d="M302.8,-287.97C347.36,-277.8 404.08,-264.87 450.31,-254.33"/>
<polygon fill="black" stroke="black" points="451.34,-257.69 460.31,-252.05 449.79,-250.86 451.34,-257.69"/>
</g>
<!-- inner2Input -->
<g id="node10" class="node">
<title>inner2Input</title>
<ellipse fill="lightskyblue" stroke="black" cx="152.09" cy="-234" rx="124.28" ry="18"/>
<text text-anchor="middle" x="152.09" y="-230.3" font-family="Times,serif" font-size="14.00">Second inner input node</text>
</g>
<!-- intermediate2&#45;&gt;inner2Input -->
<g id="edge15" class="edge">
<title>intermediate2&#45;&gt;inner2Input</title>
<path fill="none" stroke="black" stroke-dasharray="1,5" d="M209.3,-287.7C199.85,-278.99 188.23,-268.29 177.95,-258.82"/>
<polygon fill="black" stroke="black" points="180.12,-256.06 170.4,-251.86 175.38,-261.21 180.12,-256.06"/>
</g>
<!-- error2 -->
<g id="node11" class="node">
<title>error2</title>
<ellipse fill="#ff6a6a" stroke="black" cx="339.09" cy="-18" rx="94.78" ry="18"/>
<text text-anchor="middle" x="339.09" y="-14.3" font-family="Times,serif" font-size="14.00">second error node</text>
</g>
<!-- intermediate2&#45;&gt;error2 -->
<g id="edge13" class="edge">
<title>intermediate2&#45;&gt;error2</title>
<path fill="none" stroke="#ff6a6a" d="M252.47,-287.95C264.04,-278.62 277.07,-266.09 285.09,-252 325.59,-180.86 304.27,-151.42 324.09,-72 326.23,-63.42 328.78,-54.13 331.16,-45.76"/>
<polygon fill="#ff6a6a" stroke="#ff6a6a" points="334.54,-46.69 333.95,-36.11 327.81,-44.75 334.54,-46.69"/>
</g>
<!-- inner2Input&#45;&gt;inner2Intermediate -->
<g id="edge6" class="edge">
<title>inner2Input&#45;&gt;inner2Intermediate</title>
<path fill="none" stroke="black" d="M151.1,-215.7C150.66,-207.98 150.13,-198.71 149.64,-190.11"/>
<polygon fill="black" stroke="black" points="153.13,-189.89 149.07,-180.1 146.14,-190.29 153.13,-189.89"/>
</g>
<!-- inner1Finish -->
<g id="node12" class="node">
<title>inner1Finish</title>
<ellipse fill="lightgreen" stroke="black" cx="782.09" cy="-162" rx="100.18" ry="18"/>
<text text-anchor="middle" x="782.09" y="-158.3" font-family="Times,serif" font-size="14.00">Finish first process</text>
</g>
<!-- inner3Intermediate -->
<g id="node14" class="node">
<title>inner3Intermediate</title>
<polygon fill="aliceblue" stroke="black" points="499.09,-108 333.09,-108 333.09,-72 499.09,-72 499.09,-108"/>
<text text-anchor="middle" x="416.09" y="-86.3" font-family="Times,serif" font-size="14.00">Task in third process</text>
</g>
<!-- inner3Input&#45;&gt;inner3Intermediate -->
<g id="edge7" class="edge">
<title>inner3Input&#45;&gt;inner3Intermediate</title>
<path fill="none" stroke="black" d="M436.42,-143.7C433.38,-135.81 429.71,-126.3 426.33,-117.55"/>
<polygon fill="black" stroke="black" points="429.55,-116.17 422.69,-108.1 423.02,-118.69 429.55,-116.17"/>
</g>
<!-- inner3Finish -->
<g id="node17" class="node">
<title>inner3Finish</title>
<ellipse fill="lightgreen" stroke="black" cx="556.09" cy="-18" rx="103.98" ry="18"/>
<text text-anchor="middle" x="556.09" y="-14.3" font-family="Times,serif" font-size="14.00">Finish third process</text>
</g>
<!-- inner3Intermediate&#45;&gt;inner3Finish -->
<g id="edge12" class="edge">
<title>inner3Intermediate&#45;&gt;inner3Finish</title>
<path fill="none" stroke="black" d="M450.34,-71.88C469.71,-62.19 494.08,-50 514.54,-39.77"/>
<polygon fill="black" stroke="black" points="516.26,-42.83 523.64,-35.23 513.13,-36.57 516.26,-42.83"/>
</g>
<!-- inner1Intermediate&#45;&gt;inner1Finish -->
<g id="edge18" class="edge">
<title>inner1Intermediate&#45;&gt;inner1Finish</title>
<path fill="none" stroke="black" d="M771.55,-215.7C773.09,-207.98 774.95,-198.71 776.67,-190.11"/>
<polygon fill="black" stroke="black" points="780.14,-190.6 778.67,-180.1 773.28,-189.22 780.14,-190.6"/>
</g>
<!-- input -->
<g id="node18" class="node">
<title>input</title>
<ellipse fill="lightskyblue" stroke="black" cx="296.09" cy="-450" rx="81.49" ry="18"/>
<text text-anchor="middle" x="296.09" y="-446.3" font-family="Times,serif" font-size="14.00">Our input node</text>
</g>
<!-- input&#45;&gt;intermediate -->
<g id="edge16" class="edge">
<title>input&#45;&gt;intermediate</title>
<path fill="none" stroke="black" d="M296.09,-431.7C296.09,-423.98 296.09,-414.71 296.09,-406.11"/>
<polygon fill="black" stroke="black" points="299.59,-406.1 296.09,-396.1 292.59,-406.1 299.59,-406.1"/>
</g>
</g>
</svg>
